HIERARCHY
ROOT Hips
{
	OFFSET 0.000000 35.082581 0.000000
	CHANNELS 6 Xposition Yposition Zposition Xrotation Yrotation Zrotation 
	JOINT Spine
	{
		OFFSET 0.000000 6.876099 0.125700
		CHANNELS 3 Xrotation Yrotation Zrotation
		JOINT Spine1
		{
			OFFSET 0.000000 5.730043 0.104720
			CHANNELS 3 Xrotation Yrotation Zrotation
			JOINT Spine1_split
			{
				OFFSET 0.000000 5.730043 0.104720
				CHANNELS 3 Xrotation Yrotation Zrotation
				JOINT Spine2
				{
					OFFSET 0.000000 5.730043 0.104720
					CHANNELS 3 Xrotation Yrotation Zrotation
					JOINT Neck
					{
						OFFSET 0.000000 10.314075 0.188496
						CHANNELS 3 Xrotation Yrotation Zrotation
						JOINT Head
						{
							OFFSET 0.000000 7.643700 -2.377400
							CHANNELS 3 Xrotation Yrotation Zrotation
							JOINT HeadTop_End
							{
								OFFSET 0.000000 43.788605 -13.619600
								CHANNELS 3 Xrotation Yrotation Zrotation
								End Site
								{
									OFFSET 0.000000 0.000000 0.000000
								}
							}
						}
					}
					JOINT LeftShoulder
					{
						OFFSET 2.196100 4.412489 0.087492
						CHANNELS 3 Xrotation Yrotation Zrotation
						JOINT LeftShoulder_split
						{
							OFFSET 2.196100 4.412489 0.087492
							CHANNELS 3 Xrotation Yrotation Zrotation
							JOINT LeftArm
							{
								OFFSET 8.771219 -2.981674 -0.026999
								CHANNELS 3 Xrotation Yrotation Zrotation
								JOINT LeftForeArm
								{
									OFFSET 8.512804 0.000000 -0.000000
									CHANNELS 3 Xrotation Yrotation Zrotation
									JOINT LeftHand
									{
										OFFSET 18.484802 0.000000 -0.000000
										CHANNELS 3 Xrotation Yrotation Zrotation
										JOINT LeftHandThumb1
										{
											OFFSET 2.499420 -1.158070 2.653252
											CHANNELS 3 Xrotation Yrotation Zrotation
											JOINT LeftHandThumb2
											{
												OFFSET 2.370079 -1.368366 1.368366
												CHANNELS 3 Xrotation Yrotation Zrotation
												JOINT LeftHandThumb3
												{
													OFFSET 2.676727 -1.545410 1.545409
													CHANNELS 3 Xrotation Yrotation Zrotation
													JOINT LeftHandThumb4
													{
														OFFSET 1.692226 -0.977005 0.977007
														CHANNELS 3 Xrotation Yrotation Zrotation
														End Site
														{
															OFFSET 0.000000 0.000000 0.000000
														}
													}
												}
											}
										}
										JOINT LeftHandIndex1
										{
											OFFSET 7.924831 -0.457527 2.345128
											CHANNELS 3 Xrotation Yrotation Zrotation
											JOINT LeftHandIndex2
											{
												OFFSET 3.643303 0.000000 0.000000
												CHANNELS 3 Xrotation Yrotation Zrotation
												JOINT LeftHandIndex3
												{
													OFFSET 3.810799 0.000000 0.000000
													CHANNELS 3 Xrotation Yrotation Zrotation
													JOINT LeftHandIndex4
													{
														OFFSET 2.403702 0.000000 0.000000
														CHANNELS 3 Xrotation Yrotation Zrotation
														End Site
														{
															OFFSET 0.000000 0.000000 0.000000
														}
													}
												}
											}
										}
										JOINT LeftHandMiddle1
										{
											OFFSET 8.563995 0.000000 -0.000000
											CHANNELS 3 Xrotation Yrotation Zrotation
											JOINT LeftHandMiddle2
											{
												OFFSET 3.861618 0.000000 0.000000
												CHANNELS 3 Xrotation Yrotation Zrotation
												JOINT LeftHandMiddle3
												{
													OFFSET 3.701603 0.000000 0.000000
													CHANNELS 3 Xrotation Yrotation Zrotation
													JOINT LeftHandMiddle4
													{
														OFFSET 2.322544 0.000000 0.000000
														CHANNELS 3 Xrotation Yrotation Zrotation
														End Site
														{
															OFFSET 0.000000 0.000000 0.000000
														}
													}
												}
											}
										}
										JOINT LeftHandRing1
										{
											OFFSET 8.426460 -0.424637 -3.286992
											CHANNELS 3 Xrotation Yrotation Zrotation
											JOINT LeftHandRing2
											{
												OFFSET 3.126408 0.000000 0.000000
												CHANNELS 3 Xrotation Yrotation Zrotation
												JOINT LeftHandRing3
												{
													OFFSET 3.085026 0.000000 0.000000
													CHANNELS 3 Xrotation Yrotation Zrotation
													JOINT LeftHandRing4
													{
														OFFSET 1.644005 0.000000 0.000000
														CHANNELS 3 Xrotation Yrotation Zrotation
														End Site
														{
															OFFSET 0.000000 0.000000 0.000000
														}
													}
												}
											}
										}
									}
								}
							}
						}
					}
					JOINT RightShoulder
					{
						OFFSET -2.196100 4.412496 0.070690
						CHANNELS 3 Xrotation Yrotation Zrotation
						JOINT RightShoulder_split
						{
							OFFSET -2.196100 4.412496 0.070690
							CHANNELS 3 Xrotation Yrotation Zrotation
							JOINT RightArm
							{
								OFFSET -8.771282 -2.981682 -0.094208
								CHANNELS 3 Xrotation Yrotation Zrotation
								JOINT RightForeArm
								{
									OFFSET -8.494598 0.000000 0.000000
									CHANNELS 3 Xrotation Yrotation Zrotation
									JOINT RightHand
									{
										OFFSET -18.483803 0.000000 0.000001
										CHANNELS 3 Xrotation Yrotation Zrotation
										JOINT RightHandThumb1
										{
											OFFSET -2.527351 -1.008072 2.575253
											CHANNELS 3 Xrotation Yrotation Zrotation
											JOINT RightHandThumb2
											{
												OFFSET -2.321518 -1.340328 1.340329
												CHANNELS 3 Xrotation Yrotation Zrotation
												JOINT RightHandThumb3
												{
													OFFSET -2.657753 -1.534454 1.534455
													CHANNELS 3 Xrotation Yrotation Zrotation
													JOINT RightHandThumb4
													{
														OFFSET -1.807510 -1.043568 1.043567
														CHANNELS 3 Xrotation Yrotation Zrotation
														End Site
														{
															OFFSET 0.000000 0.000000 0.000000
														}
													}
												}
											}
										}
										JOINT RightHandIndex1
										{
											OFFSET -8.811420 0.015533 2.887987
											CHANNELS 3 Xrotation Yrotation Zrotation
											JOINT RightHandIndex2
											{
												OFFSET -3.537502 0.000000 0.000000
												CHANNELS 3 Xrotation Yrotation Zrotation
												JOINT RightHandIndex3
												{
													OFFSET -3.356201 0.000000 0.000000
													CHANNELS 3 Xrotation Yrotation Zrotation
													JOINT RightHandIndex4
													{
														OFFSET -1.933098 0.000000 0.000000
														CHANNELS 3 Xrotation Yrotation Zrotation
														End Site
														{
															OFFSET 0.000000 0.000000 0.000000
														}
													}
												}
											}
										}
										JOINT RightHandMiddle1
										{
											OFFSET -8.178135 0.000000 0.000000
											CHANNELS 3 Xrotation Yrotation Zrotation
											JOINT RightHandMiddle2
											{
												OFFSET -3.901302 0.000000 0.000000
												CHANNELS 3 Xrotation Yrotation Zrotation
												JOINT RightHandMiddle3
												{
													OFFSET -3.909599 0.000000 0.000000
													CHANNELS 3 Xrotation Yrotation Zrotation
													JOINT RightHandMiddle4
													{
														OFFSET -2.376003 0.000000 0.000000
														CHANNELS 3 Xrotation Yrotation Zrotation
														End Site
														{
															OFFSET 0.000000 0.000000 0.000000
														}
													}
												}
											}
										}
										JOINT RightHandRing1
										{
											OFFSET -7.559013 0.014137 -2.865403
											CHANNELS 3 Xrotation Yrotation Zrotation
											JOINT RightHandRing2
											{
												OFFSET -3.449306 0.000000 0.000000
												CHANNELS 3 Xrotation Yrotation Zrotation
												JOINT RightHandRing3
												{
													OFFSET -3.362106 0.000000 0.000000
													CHANNELS 3 Xrotation Yrotation Zrotation
													JOINT RightHandRing4
													{
														OFFSET -2.076401 0.000000 0.000000
														CHANNELS 3 Xrotation Yrotation Zrotation
														End Site
														{
															OFFSET 0.000000 0.000000 0.000000
														}
													}
												}
											}
										}
									}
								}
							}
						}
					}
				}
			}
		}
	}
	JOINT LeftUpLeg
	{
		OFFSET 10.205400 -3.823500 0.155100
		CHANNELS 3 Xrotation Yrotation Zrotation
		JOINT LeftLeg
		{
			OFFSET 0.708757 -12.982077 0.567790
			CHANNELS 3 Xrotation Yrotation Zrotation
			JOINT LeftFoot
			{
				OFFSET -0.708756 -10.717838 -2.184338
				CHANNELS 3 Xrotation Yrotation Zrotation
				JOINT LeftToeBase
				{
					OFFSET 0.108149 -7.191104 7.560241
					CHANNELS 3 Xrotation Yrotation Zrotation
					JOINT LeftToe_End
					{
						OFFSET 0.070230 0.081724 4.490308
						CHANNELS 3 Xrotation Yrotation Zrotation
						End Site
						{
							OFFSET 0.000000 0.000000 0.000000
						}
					}
				}
			}
		}
	}
	JOINT RightUpLeg
	{
		OFFSET -10.205400 -3.823500 0.005500
		CHANNELS 3 Xrotation Yrotation Zrotation
		JOINT RightLeg
		{
			OFFSET -0.708756 -12.982134 0.610632
			CHANNELS 3 Xrotation Yrotation Zrotation
			JOINT RightFoot
			{
				OFFSET 0.708754 -10.717769 -1.945823
				CHANNELS 3 Xrotation Yrotation Zrotation
				JOINT RightToeBase
				{
					OFFSET -0.108140 -7.191069 7.372968
					CHANNELS 3 Xrotation Yrotation Zrotation
					JOINT RightToe_End
					{
						OFFSET -0.070227 0.081735 4.479403
						CHANNELS 3 Xrotation Yrotation Zrotation
						End Site
						{
							OFFSET 0.000000 0.000000 0.000000
						}
					}
				}
			}
		}
	}
}
MOTION
Frames: 4
Frame Time: 0.016667
-0.269108 28.599102 -0.034272 3.000803 -58.172188 6.374286 11.189892 0.063095 -2.592047 8.434601 0.027691 -5.592316 0.000000 0.000000 0.000000 8.457028 0.027832 -5.591851 -21.556844 25.063176 12.062627 -0.293121 25.465696 -3.208472 -0.000000 0.000000 0.000000 -6.221675 -11.503860 -4.023811 0.000000 0.000000 0.000000 -23.062137 9.568625 -36.639631 0.046135 -43.169268 -0.011145 22.743715 -5.685843 15.979246 -1.064236 -7.954935 8.490101 2.373394 19.986093 -2.038312 0.808193 1.237738 2.631747 0.000002 -0.000000 -0.000004 13.340899 -1.006670 10.682318 -0.167605 0.303397 -31.105668 -0.143384 0.303633 -32.256227 0.000002 -0.000000 0.000001 8.495447 -0.329535 -0.915266 0.231497 0.661259 -29.901875 0.444129 0.213438 -44.357007 0.000002 -0.000000 0.000000 6.111755 3.150934 -16.210909 0.047074 0.322419 -30.125465 0.408797 0.818942 -42.140628 -0.000002 0.000000 -0.000000 -5.488240 10.658310 2.466483 0.000000 0.000000 0.000000 -41.473820 -26.755528 30.078971 24.955459 111.863117 -23.308429 -8.702490 12.422914 -9.802074 0.264999 10.061074 -10.888472 1.383808 -17.412865 3.016287 3.342333 -13.253733 -8.262774 -0.000000 -0.000000 -0.000000 19.443590 11.174429 -13.340189 -0.118652 -0.322734 18.035587 -0.089906 -0.286589 23.256601 0.000001 0.000001 -0.000000 4.320446 2.436986 -4.811714 0.349118 -0.461249 26.890315 0.467493 0.154047 39.044848 -0.000002 -0.000000 -0.000000 -7.005624 -10.695119 5.719868 0.111864 -0.089229 26.155894 0.451270 -0.473471 33.265091 0.000002 -0.000001 -0.000000 -37.007819 4.718880 33.440227 48.225206 -12.859327 -11.597565 -12.624023 -0.319457 -14.396241 -0.327605 1.238437 0.837229 0.000000 -0.000003 0.000000 -31.642798 -2.223064 -36.223536 60.432278 9.463256 -7.242657 -30.089705 -4.049739 28.253144 -0.322725 -0.997393 -0.837217 0.000000 -0.000000 0.000000 
-0.276659 28.566662 -0.029773 1.339850 -58.447295 4.733697 10.937289 -0.122638 -2.370953 7.815277 -0.326027 -5.179801 0.000000 0.000000 0.000000 7.841704 -0.289954 -5.218254 -16.952219 25.003601 11.382623 1.554969 25.240426 -5.687660 0.000001 -0.000000 0.000000 -6.685501 -11.300287 -5.194092 0.000000 0.000000 0.000000 -20.846115 10.084651 -34.890881 4.501461 -44.384550 0.854216 12.301427 -3.504549 18.746836 -0.817784 -7.008232 8.688561 2.795489 20.865748 -1.954411 1.151884 2.142738 2.837621 -0.000002 0.000001 -0.000001 13.346477 -1.013387 8.858976 -0.165561 0.304590 -32.928974 -0.136669 0.301821 -34.079666 0.000001 0.000000 -0.000000 8.466202 -0.311469 -2.738564 0.241814 0.667303 -31.725290 0.455375 0.216960 -46.180405 -0.000001 -0.000000 0.000001 6.092966 3.171996 -18.033089 0.048043 0.334598 -31.948818 0.427224 0.817657 -43.964224 0.000000 0.000001 0.000002 -5.634355 10.125340 2.634038 0.000000 0.000000 0.000000 -41.005608 -24.756301 29.332206 24.443618 110.510337 -22.235691 -0.953739 8.719420 -11.067491 0.356407 9.641551 -10.977420 1.570917 -17.798308 2.977756 3.459287 -13.663743 -8.327550 0.000001 0.000001 0.000002 19.447941 11.177523 -10.409371 -0.115835 -0.325263 20.967289 -0.078789 -0.285412 26.188286 -0.000000 -0.000001 -0.000000 4.273846 2.408382 -1.878587 0.365319 -0.471717 29.822095 0.485052 0.146979 41.976423 0.000003 0.000000 -0.000000 -7.029071 -10.720205 8.646967 0.112311 -0.108838 29.087488 0.480885 -0.475747 36.196820 -0.000002 0.000003 -0.000000 -36.114434 4.639873 33.970137 48.720593 -13.159689 -11.705854 -13.153925 -0.233702 -14.393773 -0.327612 1.238504 0.837245 0.000000 0.000000 0.000000 -30.908150 -2.562726 -36.113116 60.460309 9.865415 -7.241256 -30.172521 -3.953462 27.984841 -0.322719 -0.997320 -0.837217 0.000000 -0.000001 0.000000 
-0.311727 28.520348 0.025884 -0.236401 -58.827374 3.153059 10.330563 -0.529978 -1.810782 6.356271 -1.115942 -4.166070 0.000000 0.000000 0.000000 6.388317 -1.004150 -4.289061 -6.596748 24.682777 10.020962 5.771838 24.455043 -11.198031 -0.000000 -0.000000 -0.000001 -7.444605 -11.224857 -7.938083 0.000000 0.000000 0.000000 -17.825487 12.833949 -32.921198 9.087170 -48.058311 1.764676 2.794013 0.641296 21.567468 -0.555613 -5.986857 8.898252 3.257384 21.811562 -1.869786 1.519048 3.119677 3.054325 -0.000002 -0.000000 -0.000002 13.352264 -1.020819 6.893193 -0.163314 0.305712 -34.894972 -0.129496 0.299759 -36.045633 0.000000 0.000000 0.000000 8.435344 -0.291011 -4.704293 0.253173 0.673450 -33.691349 0.467630 0.220301 -48.146324 -0.000000 -0.000000 -0.000001 6.073463 3.195286 -19.997749 0.049531 0.347709 -33.914710 0.447047 0.815608 -45.930331 -0.000001 0.000001 0.000002 -5.983462 8.827095 3.075333 0.000000 0.000000 0.000000 -38.745860 -19.254862 28.392009 20.208648 109.867506 -16.299886 7.140811 4.709834 -11.433868 0.455342 9.184290 -11.073775 1.772480 -18.218563 2.932622 3.586254 -14.110737 -8.397646 -0.000000 -0.000003 0.000001 19.452486 11.181124 -7.215378 -0.112655 -0.327772 24.162114 -0.066813 -0.283482 29.383204 0.000000 0.000002 -0.000001 4.224809 2.374552 1.317738 0.383451 -0.482151 33.017039 0.504649 0.140240 45.171108 -0.000003 0.000003 -0.000001 -7.053124 -10.748755 11.837138 0.113819 -0.130188 32.282264 0.513238 -0.476435 39.391770 0.000001 -0.000001 0.000001 -35.091193 4.564950 34.531883 49.448001 -13.434133 -11.847772 -14.049776 -0.100664 -14.385649 -0.327575 1.238431 0.837241 -0.000000 -0.000002 0.000000 -30.203827 -2.851775 -36.072715 60.443213 10.398516 -7.228994 -30.259804 -3.856922 27.739965 -0.322723 -0.997424 -0.837198 0.000000 0.000002 0.000000 
-0.434696 28.474995 0.148327 -1.831048 -58.767754 1.629442 9.558687 -0.994920 -1.067127 4.553882 -2.005599 -2.831327 0.000000 0.000000 0.000000 4.585546 -1.818072 -3.044922 5.236359 23.944280 8.810551 10.649095 23.072823 -17.338749 -0.000002 0.000001 0.000000 -8.310476 -11.099478 -11.307737 0.000000 0.000000 0.000000 -14.786349 15.433463 -31.237194 14.384681 -52.081374 3.335669 -5.543222 5.381396 24.045246 -0.295243 -4.957890 9.104976 3.727186 22.762627 -1.791837 1.885236 4.104440 3.267197 -0.000002 -0.000003 -0.000002 13.357832 -1.028541 4.914094 -0.161036 0.306766 -36.874135 -0.122336 0.297433 -38.024834 0.000001 -0.000000 -0.000000 8.404994 -0.269315 -6.683303 0.264757 0.679262 -35.670632 0.480117 0.223286 -50.125546 0.000001 -0.000000 -0.000000 6.054689 3.219392 -21.975628 0.051448 0.360810 -35.893853 0.466893 0.812868 -47.909696 -0.000001 -0.000001 0.000003 -6.427614 7.045165 3.807159 0.000000 0.000000 0.000000 -35.653813 -12.738072 26.064693 13.821634 110.918468 -7.469520 13.357312 1.174500 -10.753089 0.549448 8.746530 -11.165463 1.973961 -18.616008 2.888153 3.707287 -14.538672 -8.464227 0.000001 -0.000001 0.000003 19.456646 11.184791 -4.158324 -0.109485 -0.330057 27.220027 -0.055397 -0.281032 32.441117 0.000001 -0.000001 0.000000 4.179701 2.339687 4.376942 0.401392 -0.491188 36.075010 0.523686 0.134879 48.228857 0.000001 0.000000 0.000003 -7.074575 -10.777303 14.890798 0.116404 -0.150542 35.340041 0.544150 -0.475447 42.449783 -0.000001 0.000003 -0.000001 -34.098582 4.542397 34.891601 50.057251 -13.983828 -11.996819 -14.957986 -0.016638 -14.201612 -0.327620 1.238403 0.837238 -0.000000 0.000002 0.000000 -28.750469 -3.418547 -36.285441 60.209347 10.715191 -7.202200 -30.785971 -3.995909 27.757972 -0.322696 -0.997356 -0.837243 0.000000 0.000002 0.000000 
